<?xml version="1.0" encoding="utf-8"?>
<!-- Generator: Adobe Illustrator 19.2.0, SVG Export Plug-In . SVG Version: 6.00 Build 0)  -->
<svg version="1.1" id="Layer_1" xmlns="http://www.w3.org/2000/svg" xmlns:xlink="http://www.w3.org/1999/xlink" x="0px" y="0px"
	 viewBox="0 0 1952.1 400" style="enable-background:new 0 0 1952.1 400;" xml:space="preserve">
<style type="text/css">
	.st0{fill:#FFFDFD;}
</style>
<title>chainels</title>
<polygon class="st0" points="225.9,0 225.9,51.7 348.4,51.7 348.4,348.3 225.9,348.3 225.9,400 400,400 400,0 "/>
<polygon class="st0" points="174.2,348.3 51.8,348.3 51.8,51.7 174.2,51.7 174.2,0 0.1,0 0.1,400 174.2,400 "/>
<path class="st0" d="M244.7,183.4c-5.2-18.3-20.9-31-42.6-31c-28.4,0-46.3,21.3-46.3,47.8s17.9,47.4,46.3,47.4
	c22,0,37.7-13.1,43-31.4h56c-6.7,47.4-44.8,83.7-99,83.7C139.7,299.9,99,255.1,99,199.8c0-54.9,40.7-99.7,103.1-99.7
	c54.2,0,92.3,36.2,99,83.3H244.7z"/>
<path class="st0" d="M646.9,183.4c-5.2-18.3-20.9-31-42.6-31c-28.4,0-46.3,21.3-46.3,47.8s17.9,47.4,46.3,47.4
	c22,0,37.7-13.1,43-31.4h56c-6.7,47.4-44.8,83.7-99,83.7c-62.4,0-103.1-44.8-103.1-100.1c0-54.9,40.7-99.7,103.1-99.7
	c54.2,0,92.3,36.2,99,83.3L646.9,183.4L646.9,183.4z"/>
<path class="st0" d="M732.4,18.3h56.8v106.1c13.8-17.2,34-24.3,53.8-24.3c42.6,0,68,29.5,68,70.2v124.8h-56.8V185.6
	c0-17.2-7.5-33.2-31.8-33.2c-23.9,0-33.2,17.2-33.2,35.1v107.6h-56.8V18.3z"/>
<path class="st0" d="M1006,299.9c-35.5,0-62.4-20.9-62.4-54.2c0-32.9,20.2-53,67.6-63.5l46.7-10.5v-1.9c0-13.8-10.1-23.2-26.5-23.2
	c-17.2,0-27.6,9-29.1,22.4h-54.9c2.2-38.5,36.2-69.1,85.2-69.1c55.3,0,81.4,33.2,81.4,75.4v119.5h-53.8v-21.7
	C1045.9,293.6,1023.9,299.9,1006,299.9z M1057.9,210.3l-31.8,6.7c-16.8,3.7-26.9,10.1-26.9,21.3c0,12,7.8,17.2,21.7,17.2
	c20.9,0,37-19.4,37-38.9L1057.9,210.3L1057.9,210.3z"/>
<path class="st0" d="M1218.5,50c0,17.9-13.1,33.6-35.5,33.6c-22,0-35.1-15.7-35.1-33.6c0-18.7,13.1-34,35.1-34
	C1205.4,16,1218.5,31.3,1218.5,50z M1155,104.9h56.8v190.1H1155V104.9z"/>
<path class="st0" d="M1255.1,104.9h54.2v23.2c13.8-19.8,35.5-28,56.4-28c42.6,0,68,29.5,68,70.2v124.7h-56.8V186.4
	c0-17.9-7.5-34-31.8-34c-23.9,0-33.2,17.2-33.2,35.1v107.6h-56.8L1255.1,104.9L1255.1,104.9z"/>
<path class="st0" d="M1659.2,233.4c-11.6,40.3-45.9,66.5-96.4,66.5c-60.5,0-100.8-44.5-100.8-99.7s43-100.1,101.6-100.1
	c61.6,0,99.4,42.6,99.4,97.1v17.2h-146.8c4.9,23.9,21.7,40,47.4,40c19.4,0,32.5-6.7,40.7-20.9L1659.2,233.4L1659.2,233.4z
	 M1518.8,177h89.2c-6-19.4-22-31-44.4-31S1525.5,158.3,1518.8,177z"/>
<path class="st0" d="M1695.8,18.3h56.8v276.8h-56.8V18.3z"/>
<path class="st0" d="M1890.8,162.8c0-16.1-11.2-19.4-22-19.4c-11.2,0-20.9,4.1-20.9,13.4c0,9.7,7.1,13.1,23.5,16.8l15.3,3.4
	c37.3,8.2,65.4,20.9,65.4,59c0,42.6-35.1,63.9-81.1,63.9c-49.7,0-85.2-19.8-87.8-66.9h59.7c0,17.6,11.6,23.9,26.5,23.9
	c14.6,0,23.9-5.2,23.9-16.1c0-10.5-7.8-14.6-21.7-17.6l-18.3-3.7c-33.6-6.7-63.1-19.8-63.1-58.6c0-39.2,35.9-60.9,79.2-60.9
	s75.8,19.8,79.2,62.8L1890.8,162.8L1890.8,162.8z"/>
</svg>
