<svg id="Layer_1" data-name="Layer 1" xmlns="http://www.w3.org/2000/svg" viewBox="0 0 1952.05 400"><title>chainels</title><polygon points="225.93 0 225.93 51.7 348.35 51.7 348.35 348.3 225.93 348.3 225.93 400 400.05 400 400.05 0 225.93 0"/><polygon points="174.17 348.3 51.75 348.3 51.75 51.7 174.17 51.7 174.17 0 0.05 0 0.05 400 174.17 400 174.17 348.3"/><path d="M244.69,183.38c-5.23-18.3-20.92-31-42.58-31-28.39,0-46.32,21.29-46.32,47.81s17.93,47.44,46.32,47.44c22,0,37.73-13.07,43-31.38h56c-6.72,47.44-44.82,83.67-99,83.67C139.73,299.92,99,255.1,99,199.81c0-54.91,40.71-99.73,103.09-99.73,54.16,0,92.26,36.23,99,83.3h-56.4Z"/><path d="M646.89,183.38c-5.23-18.3-20.92-31-42.58-31-28.39,0-46.32,21.29-46.32,47.81s17.93,47.44,46.32,47.44c22,0,37.73-13.07,43-31.38h56c-6.72,47.44-44.82,83.67-99,83.67-62.38,0-103.09-44.82-103.09-100.1,0-54.91,40.71-99.73,103.09-99.73,54.16,0,92.26,36.23,99,83.3h-56.4Z"/><path d="M732.39,18.28h56.78V124.36c13.82-17.18,34-24.28,53.79-24.28,42.58,0,68,29.51,68,70.22V295.06H854.16V185.62c0-17.18-7.47-33.24-31.75-33.24-23.91,0-33.24,17.18-33.24,35.11V295.06H732.39V18.28Z"/><path d="M1006,299.92c-35.49,0-62.38-20.92-62.38-54.16,0-32.87,20.17-53,67.61-63.5l46.69-10.46v-1.87c0-13.82-10.08-23.16-26.52-23.16-17.18,0-27.64,9-29.13,22.41H947.32c2.24-38.47,36.23-69.1,85.16-69.1,55.28,0,81.43,33.24,81.43,75.45V295.06h-53.79V273.4C1045.93,293.57,1023.89,299.92,1006,299.92Zm51.92-89.65L1026.13,217c-16.81,3.74-26.89,10.09-26.89,21.29,0,12,7.84,17.18,21.66,17.18,20.92,0,37-19.42,37-38.85v-6.35Z"/><path d="M1218.5,50c0,17.93-13.07,33.62-35.49,33.62-22,0-35.11-15.69-35.11-33.62,0-18.68,13.07-34,35.11-34C1205.43,16,1218.5,31.35,1218.5,50ZM1155,104.94h56.78V295.06H1155V104.94Z"/><path d="M1255.07,104.94h54.16V128.1c13.82-19.8,35.49-28,56.4-28,42.58,0,68,29.51,68,70.22V295.06h-56.78V186.37c0-17.93-7.47-34-31.75-34-23.91,0-33.24,17.18-33.24,35.11V295.06h-56.78V104.94Z"/><path d="M1659.22,233.43c-11.58,40.34-45.94,66.49-96.37,66.49-60.51,0-100.85-44.45-100.85-99.73s43-100.11,101.6-100.11c61.63,0,99.36,42.58,99.36,97.12v17.18h-146.8c4.86,23.91,21.66,40,47.44,40,19.42,0,32.5-6.72,40.71-20.92h54.91ZM1518.77,177H1608c-6-19.42-22-31-44.45-31S1525.5,158.35,1518.77,177Z"/><path d="M1695.79,18.28h56.78V295.06h-56.78V18.28Z"/><path d="M1890.84,162.83c0-16.06-11.21-19.42-22-19.42-11.21,0-20.92,4.11-20.92,13.45,0,9.71,7.1,13.07,23.53,16.81l15.31,3.36c37.35,8.22,65.37,20.92,65.37,59,0,42.58-35.11,63.87-81.06,63.87-49.68,0-85.16-19.8-87.78-66.86H1843c0,17.56,11.58,23.91,26.52,23.91,14.57,0,23.91-5.23,23.91-16.06,0-10.46-7.84-14.57-21.66-17.56l-18.3-3.74c-33.62-6.72-63.13-19.8-63.13-58.64,0-39.22,35.86-60.88,79.19-60.88s75.83,19.8,79.19,62.75h-57.9Z"/></svg>